<mxfile host="app.diagrams.net" modified="2023-09-22T00:39:22.606Z" agent="Mozilla/5.0 (Windows NT 10.0; Win64; x64) AppleWebKit/537.36 (KHTML, like Gecko) Chrome/116.0.0.0 Safari/537.36" etag="Ehzk64VecMz52HTGu7xv" version="21.8.0" type="github">
  <diagram id="prtHgNgQTEPvFCAcTncT" name="Page-1">
    <mxGraphModel dx="1445" dy="2536" grid="1" gridSize="10" guides="1" tooltips="1" connect="1" arrows="1" fold="1" page="1" pageScale="1" pageWidth="827" pageHeight="1169" math="0" shadow="0">
      <root>
        <mxCell id="0" />
        <mxCell id="1" parent="0" />
        <mxCell id="dNxyNK7c78bLwvsdeMH5-19" value="DEX Arbitrage Bot" style="swimlane;html=1;childLayout=stackLayout;resizeParent=1;resizeParentMax=0;horizontal=0;startSize=20;horizontalStack=0;" parent="1" vertex="1">
          <mxGeometry x="70" y="70" width="1280" height="720" as="geometry" />
        </mxCell>
        <mxCell id="mO-mU0wgJN1b0pkcPdMh-35" style="edgeStyle=orthogonalEdgeStyle;rounded=0;orthogonalLoop=1;jettySize=auto;html=1;exitX=0.5;exitY=1;exitDx=0;exitDy=0;entryX=0.5;entryY=0;entryDx=0;entryDy=0;fillColor=#008a00;strokeColor=#005700;" edge="1" parent="dNxyNK7c78bLwvsdeMH5-19" source="mO-mU0wgJN1b0pkcPdMh-11" target="dNxyNK7c78bLwvsdeMH5-26">
          <mxGeometry relative="1" as="geometry" />
        </mxCell>
        <mxCell id="mO-mU0wgJN1b0pkcPdMh-36" style="edgeStyle=orthogonalEdgeStyle;rounded=0;orthogonalLoop=1;jettySize=auto;html=1;exitX=0.5;exitY=1;exitDx=0;exitDy=0;fillColor=#008a00;strokeColor=#005700;" edge="1" parent="dNxyNK7c78bLwvsdeMH5-19" source="mO-mU0wgJN1b0pkcPdMh-16" target="mO-mU0wgJN1b0pkcPdMh-28">
          <mxGeometry relative="1" as="geometry" />
        </mxCell>
        <mxCell id="mO-mU0wgJN1b0pkcPdMh-37" style="edgeStyle=orthogonalEdgeStyle;rounded=0;orthogonalLoop=1;jettySize=auto;html=1;exitX=0.5;exitY=1;exitDx=0;exitDy=0;entryX=0.5;entryY=0;entryDx=0;entryDy=0;fillColor=#008a00;strokeColor=#005700;" edge="1" parent="dNxyNK7c78bLwvsdeMH5-19" source="mO-mU0wgJN1b0pkcPdMh-68" target="mO-mU0wgJN1b0pkcPdMh-30">
          <mxGeometry relative="1" as="geometry" />
        </mxCell>
        <mxCell id="mO-mU0wgJN1b0pkcPdMh-66" value="Pay Fee for usage &lt;br&gt;and Set duration for trading" style="edgeLabel;html=1;align=center;verticalAlign=middle;resizable=0;points=[];" vertex="1" connectable="0" parent="mO-mU0wgJN1b0pkcPdMh-37">
          <mxGeometry x="0.1096" y="1" relative="1" as="geometry">
            <mxPoint x="-1" y="-31" as="offset" />
          </mxGeometry>
        </mxCell>
        <mxCell id="dNxyNK7c78bLwvsdeMH5-20" value="Bot for PC" style="swimlane;html=1;startSize=20;horizontal=0;" parent="dNxyNK7c78bLwvsdeMH5-19" vertex="1">
          <mxGeometry x="20" width="1260" height="250" as="geometry" />
        </mxCell>
        <mxCell id="dNxyNK7c78bLwvsdeMH5-24" value="Settings&lt;br&gt;Module" style="rounded=0;whiteSpace=wrap;html=1;fontFamily=Helvetica;fontSize=12;fontColor=#000000;align=center;" parent="dNxyNK7c78bLwvsdeMH5-20" vertex="1">
          <mxGeometry x="170" y="30" width="80" height="60" as="geometry" />
        </mxCell>
        <mxCell id="mO-mU0wgJN1b0pkcPdMh-69" style="edgeStyle=orthogonalEdgeStyle;rounded=0;orthogonalLoop=1;jettySize=auto;html=1;exitX=0.5;exitY=1;exitDx=0;exitDy=0;entryX=0.5;entryY=0;entryDx=0;entryDy=0;fillColor=#008a00;strokeColor=#005700;" edge="1" parent="dNxyNK7c78bLwvsdeMH5-20" source="dNxyNK7c78bLwvsdeMH5-30" target="mO-mU0wgJN1b0pkcPdMh-68">
          <mxGeometry relative="1" as="geometry" />
        </mxCell>
        <mxCell id="dNxyNK7c78bLwvsdeMH5-30" value="Start Bot&lt;br&gt;Module" style="rounded=0;whiteSpace=wrap;html=1;fontFamily=Helvetica;fontSize=12;fontColor=#000000;align=center;" parent="dNxyNK7c78bLwvsdeMH5-20" vertex="1">
          <mxGeometry x="560" y="30" width="80" height="60" as="geometry" />
        </mxCell>
        <mxCell id="mO-mU0wgJN1b0pkcPdMh-11" value="Deposit&lt;br&gt;Module" style="rounded=0;whiteSpace=wrap;html=1;fontFamily=Helvetica;fontSize=12;fontColor=#000000;align=center;" vertex="1" parent="dNxyNK7c78bLwvsdeMH5-20">
          <mxGeometry x="300" y="30" width="80" height="60" as="geometry" />
        </mxCell>
        <mxCell id="mO-mU0wgJN1b0pkcPdMh-16" value="Withdraw&lt;br&gt;Module" style="rounded=0;whiteSpace=wrap;html=1;fontFamily=Helvetica;fontSize=12;fontColor=#000000;align=center;" vertex="1" parent="dNxyNK7c78bLwvsdeMH5-20">
          <mxGeometry x="424" y="30" width="80" height="60" as="geometry" />
        </mxCell>
        <mxCell id="mO-mU0wgJN1b0pkcPdMh-56" value="Wallet" style="rounded=1;whiteSpace=wrap;html=1;" vertex="1" parent="dNxyNK7c78bLwvsdeMH5-20">
          <mxGeometry x="40" y="30" width="80" height="60" as="geometry" />
        </mxCell>
        <mxCell id="mO-mU0wgJN1b0pkcPdMh-80" style="edgeStyle=orthogonalEdgeStyle;rounded=0;orthogonalLoop=1;jettySize=auto;html=1;exitX=0.5;exitY=1;exitDx=0;exitDy=0;entryX=0.5;entryY=0;entryDx=0;entryDy=0;fillColor=#d5e8d4;strokeColor=#82b366;" edge="1" parent="dNxyNK7c78bLwvsdeMH5-20" source="mO-mU0wgJN1b0pkcPdMh-67" target="mO-mU0wgJN1b0pkcPdMh-79">
          <mxGeometry relative="1" as="geometry" />
        </mxCell>
        <mxCell id="mO-mU0wgJN1b0pkcPdMh-67" value="Main Logic &lt;br&gt;Module" style="rounded=0;whiteSpace=wrap;html=1;" vertex="1" parent="dNxyNK7c78bLwvsdeMH5-20">
          <mxGeometry x="750" y="30" width="120" height="60" as="geometry" />
        </mxCell>
        <mxCell id="mO-mU0wgJN1b0pkcPdMh-70" style="edgeStyle=orthogonalEdgeStyle;rounded=0;orthogonalLoop=1;jettySize=auto;html=1;exitX=1;exitY=0.5;exitDx=0;exitDy=0;entryX=0;entryY=0.5;entryDx=0;entryDy=0;fillColor=#008a00;strokeColor=#005700;" edge="1" parent="dNxyNK7c78bLwvsdeMH5-20" source="mO-mU0wgJN1b0pkcPdMh-68" target="mO-mU0wgJN1b0pkcPdMh-67">
          <mxGeometry relative="1" as="geometry" />
        </mxCell>
        <mxCell id="mO-mU0wgJN1b0pkcPdMh-71" value="Start finding &lt;br&gt;attack oportunity" style="edgeLabel;html=1;align=center;verticalAlign=middle;resizable=0;points=[];" vertex="1" connectable="0" parent="mO-mU0wgJN1b0pkcPdMh-70">
          <mxGeometry x="-0.011" y="-3" relative="1" as="geometry">
            <mxPoint as="offset" />
          </mxGeometry>
        </mxCell>
        <mxCell id="mO-mU0wgJN1b0pkcPdMh-68" value="" style="rhombus;whiteSpace=wrap;html=1;fontFamily=Helvetica;fontSize=12;fontColor=#000000;align=center;" vertex="1" parent="dNxyNK7c78bLwvsdeMH5-20">
          <mxGeometry x="580" y="140" width="40" height="40" as="geometry" />
        </mxCell>
        <mxCell id="mO-mU0wgJN1b0pkcPdMh-79" value="Find Opportunity" style="rhombus;whiteSpace=wrap;html=1;fontFamily=Helvetica;fontSize=12;fontColor=#000000;align=center;" vertex="1" parent="dNxyNK7c78bLwvsdeMH5-20">
          <mxGeometry x="745" y="120" width="130" height="100" as="geometry" />
        </mxCell>
        <mxCell id="mO-mU0wgJN1b0pkcPdMh-81" style="edgeStyle=orthogonalEdgeStyle;rounded=0;orthogonalLoop=1;jettySize=auto;html=1;exitX=0;exitY=1;exitDx=0;exitDy=0;entryX=0;entryY=0;entryDx=0;entryDy=0;fillColor=#008a00;strokeColor=#005700;" edge="1" parent="dNxyNK7c78bLwvsdeMH5-20" source="mO-mU0wgJN1b0pkcPdMh-79" target="mO-mU0wgJN1b0pkcPdMh-79">
          <mxGeometry relative="1" as="geometry">
            <Array as="points">
              <mxPoint x="778" y="200" />
              <mxPoint x="730" y="200" />
              <mxPoint x="730" y="130" />
              <mxPoint x="778" y="130" />
            </Array>
          </mxGeometry>
        </mxCell>
        <mxCell id="mO-mU0wgJN1b0pkcPdMh-91" value="No&amp;nbsp;" style="edgeLabel;html=1;align=center;verticalAlign=middle;resizable=0;points=[];" vertex="1" connectable="0" parent="mO-mU0wgJN1b0pkcPdMh-81">
          <mxGeometry x="0.0998" y="1" relative="1" as="geometry">
            <mxPoint as="offset" />
          </mxGeometry>
        </mxCell>
        <mxCell id="mO-mU0wgJN1b0pkcPdMh-103" value="Dashboard&lt;br&gt;Module" style="rounded=0;whiteSpace=wrap;html=1;" vertex="1" parent="dNxyNK7c78bLwvsdeMH5-20">
          <mxGeometry x="910" y="30" width="120" height="60" as="geometry" />
        </mxCell>
        <mxCell id="mO-mU0wgJN1b0pkcPdMh-107" value="Stop Bot &lt;br&gt;Module" style="rounded=0;whiteSpace=wrap;html=1;" vertex="1" parent="dNxyNK7c78bLwvsdeMH5-20">
          <mxGeometry x="1080" y="30" width="120" height="60" as="geometry" />
        </mxCell>
        <mxCell id="dNxyNK7c78bLwvsdeMH5-21" value="Treasury Smart Contract" style="swimlane;html=1;startSize=20;horizontal=0;" parent="dNxyNK7c78bLwvsdeMH5-19" vertex="1">
          <mxGeometry x="20" y="250" width="1260" height="280" as="geometry" />
        </mxCell>
        <mxCell id="dNxyNK7c78bLwvsdeMH5-26" value="Deposit&lt;br&gt;Function" style="rounded=0;whiteSpace=wrap;html=1;fontFamily=Helvetica;fontSize=12;fontColor=#000000;align=center;" parent="dNxyNK7c78bLwvsdeMH5-21" vertex="1">
          <mxGeometry x="300" y="40" width="80" height="60" as="geometry" />
        </mxCell>
        <mxCell id="mO-mU0wgJN1b0pkcPdMh-58" style="edgeStyle=orthogonalEdgeStyle;rounded=0;orthogonalLoop=1;jettySize=auto;html=1;entryX=1;entryY=0.5;entryDx=0;entryDy=0;fillColor=#fa6800;strokeColor=#C73500;" edge="1" parent="dNxyNK7c78bLwvsdeMH5-21" source="mO-mU0wgJN1b0pkcPdMh-28" target="dNxyNK7c78bLwvsdeMH5-36">
          <mxGeometry relative="1" as="geometry">
            <Array as="points">
              <mxPoint x="464" y="150" />
            </Array>
          </mxGeometry>
        </mxCell>
        <mxCell id="mO-mU0wgJN1b0pkcPdMh-62" value="Deposited Funds And Profits" style="edgeLabel;html=1;align=center;verticalAlign=middle;resizable=0;points=[];" vertex="1" connectable="0" parent="mO-mU0wgJN1b0pkcPdMh-58">
          <mxGeometry x="0.2794" y="-1" relative="1" as="geometry">
            <mxPoint as="offset" />
          </mxGeometry>
        </mxCell>
        <mxCell id="mO-mU0wgJN1b0pkcPdMh-28" value="Withdraw&lt;br&gt;Function" style="rounded=0;whiteSpace=wrap;html=1;fontFamily=Helvetica;fontSize=12;fontColor=#000000;align=center;" vertex="1" parent="dNxyNK7c78bLwvsdeMH5-21">
          <mxGeometry x="424" y="40" width="80" height="60" as="geometry" />
        </mxCell>
        <mxCell id="mO-mU0wgJN1b0pkcPdMh-30" value="Register&lt;br&gt;Function" style="rounded=0;whiteSpace=wrap;html=1;fontFamily=Helvetica;fontSize=12;fontColor=#000000;align=center;" vertex="1" parent="dNxyNK7c78bLwvsdeMH5-21">
          <mxGeometry x="560" y="40" width="80" height="60" as="geometry" />
        </mxCell>
        <mxCell id="dNxyNK7c78bLwvsdeMH5-36" value="" style="rhombus;whiteSpace=wrap;html=1;fontFamily=Helvetica;fontSize=12;fontColor=#000000;align=center;" parent="dNxyNK7c78bLwvsdeMH5-21" vertex="1">
          <mxGeometry x="60" y="130" width="40" height="40" as="geometry" />
        </mxCell>
        <mxCell id="mO-mU0wgJN1b0pkcPdMh-93" value="Initialize" style="rounded=0;whiteSpace=wrap;html=1;fontFamily=Helvetica;fontSize=12;fontColor=#000000;align=center;" vertex="1" parent="dNxyNK7c78bLwvsdeMH5-21">
          <mxGeometry x="170" y="40" width="80" height="60" as="geometry" />
        </mxCell>
        <mxCell id="mO-mU0wgJN1b0pkcPdMh-121" style="edgeStyle=orthogonalEdgeStyle;rounded=0;orthogonalLoop=1;jettySize=auto;html=1;exitX=0.5;exitY=0;exitDx=0;exitDy=0;entryX=0;entryY=0;entryDx=0;entryDy=27.5;entryPerimeter=0;fillColor=#fa6800;strokeColor=#C73500;" edge="1" parent="dNxyNK7c78bLwvsdeMH5-21" source="mO-mU0wgJN1b0pkcPdMh-94" target="mO-mU0wgJN1b0pkcPdMh-113">
          <mxGeometry relative="1" as="geometry">
            <mxPoint x="1120" y="200" as="targetPoint" />
            <Array as="points">
              <mxPoint x="270" y="160" />
              <mxPoint x="880" y="160" />
              <mxPoint x="880" y="188" />
            </Array>
          </mxGeometry>
        </mxCell>
        <mxCell id="mO-mU0wgJN1b0pkcPdMh-94" value="Setting&lt;br&gt;Function" style="rounded=0;whiteSpace=wrap;html=1;fontFamily=Helvetica;fontSize=12;fontColor=#000000;align=center;" vertex="1" parent="dNxyNK7c78bLwvsdeMH5-21">
          <mxGeometry x="230" y="180" width="80" height="60" as="geometry" />
        </mxCell>
        <mxCell id="mO-mU0wgJN1b0pkcPdMh-95" value="Emergency&amp;nbsp;&lt;br&gt;Withdraw&lt;br&gt;Function" style="rounded=0;whiteSpace=wrap;html=1;fontFamily=Helvetica;fontSize=12;fontColor=#000000;align=center;" vertex="1" parent="dNxyNK7c78bLwvsdeMH5-21">
          <mxGeometry x="354" y="180" width="80" height="60" as="geometry" />
        </mxCell>
        <mxCell id="mO-mU0wgJN1b0pkcPdMh-96" value="More&amp;nbsp; Functions&lt;br&gt;For Operation" style="rounded=0;whiteSpace=wrap;html=1;fontFamily=Helvetica;fontSize=12;fontColor=#000000;align=center;" vertex="1" parent="dNxyNK7c78bLwvsdeMH5-21">
          <mxGeometry x="480" y="180" width="80" height="60" as="geometry" />
        </mxCell>
        <mxCell id="mO-mU0wgJN1b0pkcPdMh-110" value="Stop Trading Function" style="rounded=0;whiteSpace=wrap;html=1;fontFamily=Helvetica;fontSize=12;fontColor=#000000;align=center;" vertex="1" parent="dNxyNK7c78bLwvsdeMH5-21">
          <mxGeometry x="700" y="40" width="80" height="60" as="geometry" />
        </mxCell>
        <mxCell id="mO-mU0wgJN1b0pkcPdMh-112" value="User Data&lt;br&gt;" style="shape=cylinder3;whiteSpace=wrap;html=1;boundedLbl=1;backgroundOutline=1;size=15;" vertex="1" parent="dNxyNK7c78bLwvsdeMH5-21">
          <mxGeometry x="1121" y="40" width="60" height="80" as="geometry" />
        </mxCell>
        <mxCell id="mO-mU0wgJN1b0pkcPdMh-113" value="Settings" style="shape=cylinder3;whiteSpace=wrap;html=1;boundedLbl=1;backgroundOutline=1;size=15;" vertex="1" parent="dNxyNK7c78bLwvsdeMH5-21">
          <mxGeometry x="1121" y="160" width="60" height="80" as="geometry" />
        </mxCell>
        <mxCell id="mO-mU0wgJN1b0pkcPdMh-116" style="edgeStyle=orthogonalEdgeStyle;rounded=0;orthogonalLoop=1;jettySize=auto;html=1;exitX=0.75;exitY=1;exitDx=0;exitDy=0;entryX=0;entryY=0.5;entryDx=0;entryDy=0;entryPerimeter=0;fillColor=#fa6800;strokeColor=#C73500;" edge="1" parent="dNxyNK7c78bLwvsdeMH5-21" source="mO-mU0wgJN1b0pkcPdMh-30" target="mO-mU0wgJN1b0pkcPdMh-112">
          <mxGeometry relative="1" as="geometry" />
        </mxCell>
        <mxCell id="mO-mU0wgJN1b0pkcPdMh-117" style="edgeStyle=orthogonalEdgeStyle;rounded=0;orthogonalLoop=1;jettySize=auto;html=1;exitX=1;exitY=0.5;exitDx=0;exitDy=0;entryX=0;entryY=0;entryDx=0;entryDy=27.5;entryPerimeter=0;fillColor=#fa6800;strokeColor=#C73500;" edge="1" parent="dNxyNK7c78bLwvsdeMH5-21" source="mO-mU0wgJN1b0pkcPdMh-110" target="mO-mU0wgJN1b0pkcPdMh-112">
          <mxGeometry relative="1" as="geometry">
            <Array as="points">
              <mxPoint x="780" y="68" />
              <mxPoint x="951" y="68" />
            </Array>
          </mxGeometry>
        </mxCell>
        <mxCell id="mO-mU0wgJN1b0pkcPdMh-118" style="edgeStyle=orthogonalEdgeStyle;rounded=0;orthogonalLoop=1;jettySize=auto;html=1;exitX=1;exitY=0.5;exitDx=0;exitDy=0;entryX=1;entryY=0.5;entryDx=0;entryDy=0;entryPerimeter=0;fillColor=#fa6800;strokeColor=#C73500;" edge="1" parent="dNxyNK7c78bLwvsdeMH5-21" source="mO-mU0wgJN1b0pkcPdMh-93" target="mO-mU0wgJN1b0pkcPdMh-113">
          <mxGeometry relative="1" as="geometry">
            <Array as="points">
              <mxPoint x="280" y="70" />
              <mxPoint x="280" y="130" />
              <mxPoint x="1201" y="130" />
              <mxPoint x="1201" y="200" />
            </Array>
          </mxGeometry>
        </mxCell>
        <mxCell id="mO-mU0wgJN1b0pkcPdMh-122" style="edgeStyle=orthogonalEdgeStyle;rounded=0;orthogonalLoop=1;jettySize=auto;html=1;exitX=1;exitY=0.25;exitDx=0;exitDy=0;entryX=0;entryY=0;entryDx=0;entryDy=52.5;entryPerimeter=0;fillColor=#fa6800;strokeColor=#C73500;" edge="1" parent="dNxyNK7c78bLwvsdeMH5-21" source="mO-mU0wgJN1b0pkcPdMh-96" target="mO-mU0wgJN1b0pkcPdMh-113">
          <mxGeometry relative="1" as="geometry">
            <Array as="points">
              <mxPoint x="840" y="195" />
              <mxPoint x="840" y="213" />
            </Array>
          </mxGeometry>
        </mxCell>
        <mxCell id="dNxyNK7c78bLwvsdeMH5-22" value="Arbitrage Logic Contract" style="swimlane;html=1;startSize=20;horizontal=0;" parent="dNxyNK7c78bLwvsdeMH5-19" vertex="1">
          <mxGeometry x="20" y="530" width="1260" height="190" as="geometry" />
        </mxCell>
        <mxCell id="mO-mU0wgJN1b0pkcPdMh-82" value="Attack Module" style="rounded=0;whiteSpace=wrap;html=1;" vertex="1" parent="dNxyNK7c78bLwvsdeMH5-22">
          <mxGeometry x="750" y="80" width="120" height="60" as="geometry" />
        </mxCell>
        <mxCell id="mO-mU0wgJN1b0pkcPdMh-129" value="Initialize" style="rounded=0;whiteSpace=wrap;html=1;fontFamily=Helvetica;fontSize=12;fontColor=#000000;align=center;" vertex="1" parent="dNxyNK7c78bLwvsdeMH5-22">
          <mxGeometry x="620" y="80" width="120" height="60" as="geometry" />
        </mxCell>
        <mxCell id="mO-mU0wgJN1b0pkcPdMh-60" style="edgeStyle=orthogonalEdgeStyle;rounded=0;orthogonalLoop=1;jettySize=auto;html=1;entryX=0.5;entryY=1;entryDx=0;entryDy=0;exitX=0.5;exitY=0;exitDx=0;exitDy=0;fillColor=#fa6800;strokeColor=#C73500;" edge="1" parent="dNxyNK7c78bLwvsdeMH5-19" source="dNxyNK7c78bLwvsdeMH5-36" target="mO-mU0wgJN1b0pkcPdMh-56">
          <mxGeometry relative="1" as="geometry">
            <mxPoint x="120" y="300" as="sourcePoint" />
            <mxPoint x="100.5" y="110" as="targetPoint" />
          </mxGeometry>
        </mxCell>
        <mxCell id="mO-mU0wgJN1b0pkcPdMh-64" value="Deposited Funds &lt;br&gt;and Profits under limit" style="edgeLabel;html=1;align=center;verticalAlign=middle;resizable=0;points=[];" vertex="1" connectable="0" parent="mO-mU0wgJN1b0pkcPdMh-60">
          <mxGeometry x="-0.1837" y="2" relative="1" as="geometry">
            <mxPoint x="2" y="48" as="offset" />
          </mxGeometry>
        </mxCell>
        <mxCell id="mO-mU0wgJN1b0pkcPdMh-83" style="edgeStyle=orthogonalEdgeStyle;rounded=0;orthogonalLoop=1;jettySize=auto;html=1;exitX=0.5;exitY=1;exitDx=0;exitDy=0;fillColor=#008a00;strokeColor=#005700;" edge="1" parent="dNxyNK7c78bLwvsdeMH5-19" source="mO-mU0wgJN1b0pkcPdMh-79" target="mO-mU0wgJN1b0pkcPdMh-82">
          <mxGeometry relative="1" as="geometry" />
        </mxCell>
        <mxCell id="mO-mU0wgJN1b0pkcPdMh-92" value="Attact Opportunity" style="edgeLabel;html=1;align=center;verticalAlign=middle;resizable=0;points=[];" vertex="1" connectable="0" parent="mO-mU0wgJN1b0pkcPdMh-83">
          <mxGeometry x="-0.1152" relative="1" as="geometry">
            <mxPoint y="78" as="offset" />
          </mxGeometry>
        </mxCell>
        <mxCell id="mO-mU0wgJN1b0pkcPdMh-111" style="edgeStyle=orthogonalEdgeStyle;rounded=0;orthogonalLoop=1;jettySize=auto;html=1;entryX=0.5;entryY=0;entryDx=0;entryDy=0;fillColor=#008a00;strokeColor=#005700;" edge="1" parent="dNxyNK7c78bLwvsdeMH5-19" source="mO-mU0wgJN1b0pkcPdMh-107" target="mO-mU0wgJN1b0pkcPdMh-110">
          <mxGeometry relative="1" as="geometry">
            <Array as="points">
              <mxPoint x="1160" y="270" />
              <mxPoint x="760" y="270" />
            </Array>
          </mxGeometry>
        </mxCell>
        <mxCell id="mO-mU0wgJN1b0pkcPdMh-126" style="edgeStyle=orthogonalEdgeStyle;rounded=0;orthogonalLoop=1;jettySize=auto;html=1;exitX=0.75;exitY=0;exitDx=0;exitDy=0;entryX=0;entryY=0;entryDx=0;entryDy=52.5;entryPerimeter=0;shape=link;fillColor=#1ba1e2;strokeColor=#006EAF;" edge="1" parent="dNxyNK7c78bLwvsdeMH5-19" source="mO-mU0wgJN1b0pkcPdMh-82" target="mO-mU0wgJN1b0pkcPdMh-112">
          <mxGeometry relative="1" as="geometry">
            <Array as="points">
              <mxPoint x="860" y="570" />
              <mxPoint x="1000" y="570" />
              <mxPoint x="1000" y="343" />
            </Array>
          </mxGeometry>
        </mxCell>
        <mxCell id="mO-mU0wgJN1b0pkcPdMh-127" style="edgeStyle=orthogonalEdgeStyle;rounded=0;orthogonalLoop=1;jettySize=auto;html=1;exitX=1;exitY=0.25;exitDx=0;exitDy=0;entryX=0;entryY=1;entryDx=0;entryDy=-15;entryPerimeter=0;shape=link;fillColor=#1ba1e2;strokeColor=#006EAF;" edge="1" parent="dNxyNK7c78bLwvsdeMH5-19" source="mO-mU0wgJN1b0pkcPdMh-82" target="mO-mU0wgJN1b0pkcPdMh-113">
          <mxGeometry relative="1" as="geometry">
            <Array as="points">
              <mxPoint x="1040" y="625" />
              <mxPoint x="1040" y="475" />
            </Array>
          </mxGeometry>
        </mxCell>
        <mxCell id="mO-mU0wgJN1b0pkcPdMh-3" value="User" style="swimlane;html=1;startSize=20;horizontal=0;" vertex="1" parent="1">
          <mxGeometry x="90" y="-120" width="1260" height="190" as="geometry" />
        </mxCell>
        <mxCell id="mO-mU0wgJN1b0pkcPdMh-5" value="User" style="ellipse;whiteSpace=wrap;html=1;" vertex="1" parent="mO-mU0wgJN1b0pkcPdMh-3">
          <mxGeometry x="320" y="40" width="40" height="40" as="geometry" />
        </mxCell>
        <mxCell id="mO-mU0wgJN1b0pkcPdMh-19" style="edgeStyle=orthogonalEdgeStyle;rounded=0;orthogonalLoop=1;jettySize=auto;html=1;exitX=0;exitY=1;exitDx=0;exitDy=0;entryX=0.5;entryY=0;entryDx=0;entryDy=0;fillColor=#0050ef;strokeColor=#001DBC;" edge="1" parent="1" source="mO-mU0wgJN1b0pkcPdMh-5" target="dNxyNK7c78bLwvsdeMH5-24">
          <mxGeometry relative="1" as="geometry" />
        </mxCell>
        <mxCell id="mO-mU0wgJN1b0pkcPdMh-46" value="2. Set settings" style="edgeLabel;html=1;align=center;verticalAlign=middle;resizable=0;points=[];" vertex="1" connectable="0" parent="mO-mU0wgJN1b0pkcPdMh-19">
          <mxGeometry x="-0.229" y="2" relative="1" as="geometry">
            <mxPoint as="offset" />
          </mxGeometry>
        </mxCell>
        <mxCell id="mO-mU0wgJN1b0pkcPdMh-21" style="edgeStyle=orthogonalEdgeStyle;rounded=0;orthogonalLoop=1;jettySize=auto;html=1;exitX=0.5;exitY=1;exitDx=0;exitDy=0;entryX=0.5;entryY=0;entryDx=0;entryDy=0;fillColor=#0050ef;strokeColor=#001DBC;" edge="1" parent="1" source="mO-mU0wgJN1b0pkcPdMh-5" target="mO-mU0wgJN1b0pkcPdMh-11">
          <mxGeometry relative="1" as="geometry">
            <Array as="points">
              <mxPoint x="430" y="60" />
              <mxPoint x="430" y="60" />
            </Array>
          </mxGeometry>
        </mxCell>
        <mxCell id="mO-mU0wgJN1b0pkcPdMh-47" value="3. Deposit Funds For Attack" style="edgeLabel;html=1;align=center;verticalAlign=middle;resizable=0;points=[];" vertex="1" connectable="0" parent="mO-mU0wgJN1b0pkcPdMh-21">
          <mxGeometry x="-0.3153" y="-2" relative="1" as="geometry">
            <mxPoint as="offset" />
          </mxGeometry>
        </mxCell>
        <mxCell id="mO-mU0wgJN1b0pkcPdMh-25" style="edgeStyle=orthogonalEdgeStyle;rounded=0;orthogonalLoop=1;jettySize=auto;html=1;exitX=1;exitY=1;exitDx=0;exitDy=0;entryX=0.5;entryY=0;entryDx=0;entryDy=0;fillColor=#0050ef;strokeColor=#001DBC;" edge="1" parent="1" source="mO-mU0wgJN1b0pkcPdMh-5" target="mO-mU0wgJN1b0pkcPdMh-16">
          <mxGeometry relative="1" as="geometry">
            <Array as="points">
              <mxPoint x="554" y="-46" />
            </Array>
          </mxGeometry>
        </mxCell>
        <mxCell id="mO-mU0wgJN1b0pkcPdMh-48" value="7. Withdraw Profit and Deposited Funds" style="edgeLabel;html=1;align=center;verticalAlign=middle;resizable=0;points=[];" vertex="1" connectable="0" parent="mO-mU0wgJN1b0pkcPdMh-25">
          <mxGeometry x="0.3571" relative="1" as="geometry">
            <mxPoint y="22" as="offset" />
          </mxGeometry>
        </mxCell>
        <mxCell id="mO-mU0wgJN1b0pkcPdMh-27" style="edgeStyle=orthogonalEdgeStyle;rounded=0;orthogonalLoop=1;jettySize=auto;html=1;exitX=1;exitY=0.5;exitDx=0;exitDy=0;entryX=0.5;entryY=0;entryDx=0;entryDy=0;fillColor=#0050ef;strokeColor=#001DBC;" edge="1" parent="1" source="mO-mU0wgJN1b0pkcPdMh-5" target="dNxyNK7c78bLwvsdeMH5-30">
          <mxGeometry relative="1" as="geometry">
            <Array as="points">
              <mxPoint x="690" y="-60" />
            </Array>
          </mxGeometry>
        </mxCell>
        <mxCell id="mO-mU0wgJN1b0pkcPdMh-49" value="4. Start Bot" style="edgeLabel;html=1;align=center;verticalAlign=middle;resizable=0;points=[];" vertex="1" connectable="0" parent="mO-mU0wgJN1b0pkcPdMh-27">
          <mxGeometry x="0.1944" y="-2" relative="1" as="geometry">
            <mxPoint as="offset" />
          </mxGeometry>
        </mxCell>
        <mxCell id="mO-mU0wgJN1b0pkcPdMh-44" style="edgeStyle=orthogonalEdgeStyle;rounded=0;orthogonalLoop=1;jettySize=auto;html=1;exitX=0;exitY=0.5;exitDx=0;exitDy=0;entryX=0.5;entryY=0;entryDx=0;entryDy=0;fillColor=#0050ef;strokeColor=#001DBC;" edge="1" parent="1" source="mO-mU0wgJN1b0pkcPdMh-5">
          <mxGeometry relative="1" as="geometry">
            <mxPoint x="170.0000000000001" y="100" as="targetPoint" />
          </mxGeometry>
        </mxCell>
        <mxCell id="mO-mU0wgJN1b0pkcPdMh-45" value="1. Set Wallet" style="edgeLabel;html=1;align=center;verticalAlign=middle;resizable=0;points=[];" vertex="1" connectable="0" parent="mO-mU0wgJN1b0pkcPdMh-44">
          <mxGeometry x="-0.2021" y="-2" relative="1" as="geometry">
            <mxPoint as="offset" />
          </mxGeometry>
        </mxCell>
        <mxCell id="mO-mU0wgJN1b0pkcPdMh-88" style="edgeStyle=orthogonalEdgeStyle;rounded=0;orthogonalLoop=1;jettySize=auto;html=1;exitX=1;exitY=0.5;exitDx=0;exitDy=0;entryX=0;entryY=0.5;entryDx=0;entryDy=0;" edge="1" parent="1" source="mO-mU0wgJN1b0pkcPdMh-82" target="mO-mU0wgJN1b0pkcPdMh-87">
          <mxGeometry relative="1" as="geometry" />
        </mxCell>
        <mxCell id="mO-mU0wgJN1b0pkcPdMh-105" style="edgeStyle=orthogonalEdgeStyle;rounded=0;orthogonalLoop=1;jettySize=auto;html=1;exitX=1;exitY=0;exitDx=0;exitDy=0;entryX=0.5;entryY=0;entryDx=0;entryDy=0;fillColor=#0050ef;strokeColor=#001DBC;" edge="1" parent="1" source="mO-mU0wgJN1b0pkcPdMh-5" target="mO-mU0wgJN1b0pkcPdMh-103">
          <mxGeometry relative="1" as="geometry" />
        </mxCell>
        <mxCell id="mO-mU0wgJN1b0pkcPdMh-106" value="5. See History, Logs And Statistics" style="edgeLabel;html=1;align=center;verticalAlign=middle;resizable=0;points=[];" vertex="1" connectable="0" parent="mO-mU0wgJN1b0pkcPdMh-105">
          <mxGeometry x="-0.0048" y="1" relative="1" as="geometry">
            <mxPoint x="1" as="offset" />
          </mxGeometry>
        </mxCell>
        <mxCell id="mO-mU0wgJN1b0pkcPdMh-108" style="edgeStyle=orthogonalEdgeStyle;rounded=0;orthogonalLoop=1;jettySize=auto;html=1;exitX=0.5;exitY=0;exitDx=0;exitDy=0;entryX=0.5;entryY=0;entryDx=0;entryDy=0;fillColor=#0050ef;strokeColor=#001DBC;" edge="1" parent="1" source="mO-mU0wgJN1b0pkcPdMh-5" target="mO-mU0wgJN1b0pkcPdMh-107">
          <mxGeometry relative="1" as="geometry">
            <Array as="points">
              <mxPoint x="430" y="-90" />
              <mxPoint x="1230" y="-90" />
            </Array>
          </mxGeometry>
        </mxCell>
        <mxCell id="mO-mU0wgJN1b0pkcPdMh-109" value="6. Stop Bot Before Period" style="edgeLabel;html=1;align=center;verticalAlign=middle;resizable=0;points=[];" vertex="1" connectable="0" parent="mO-mU0wgJN1b0pkcPdMh-108">
          <mxGeometry x="0.0157" relative="1" as="geometry">
            <mxPoint as="offset" />
          </mxGeometry>
        </mxCell>
        <mxCell id="mO-mU0wgJN1b0pkcPdMh-128" value="" style="group" vertex="1" connectable="0" parent="1">
          <mxGeometry x="1459" y="500" width="195" height="420" as="geometry" />
        </mxCell>
        <mxCell id="mO-mU0wgJN1b0pkcPdMh-87" value="DEX Platforms&lt;br&gt;&lt;br&gt;&lt;br&gt;&lt;br&gt;&lt;br&gt;&lt;br&gt;&lt;br&gt;&lt;br&gt;&lt;br&gt;&lt;br&gt;&lt;br&gt;&lt;br&gt;&lt;br&gt;&lt;br&gt;&lt;br&gt;&lt;br&gt;&lt;br&gt;&lt;br&gt;&lt;br&gt;&lt;br&gt;&lt;br&gt;&lt;br&gt;&lt;br&gt;&lt;br&gt;" style="rounded=0;whiteSpace=wrap;html=1;" vertex="1" parent="mO-mU0wgJN1b0pkcPdMh-128">
          <mxGeometry width="195" height="420" as="geometry" />
        </mxCell>
        <mxCell id="mO-mU0wgJN1b0pkcPdMh-123" value="DEX 1" style="shape=cube;whiteSpace=wrap;html=1;boundedLbl=1;backgroundOutline=1;darkOpacity=0.05;darkOpacity2=0.1;" vertex="1" parent="mO-mU0wgJN1b0pkcPdMh-128">
          <mxGeometry x="37.5" y="90" width="120" height="80" as="geometry" />
        </mxCell>
        <mxCell id="mO-mU0wgJN1b0pkcPdMh-124" value="DEX 2" style="shape=cube;whiteSpace=wrap;html=1;boundedLbl=1;backgroundOutline=1;darkOpacity=0.05;darkOpacity2=0.1;" vertex="1" parent="mO-mU0wgJN1b0pkcPdMh-128">
          <mxGeometry x="37.5" y="210" width="120" height="80" as="geometry" />
        </mxCell>
        <mxCell id="mO-mU0wgJN1b0pkcPdMh-125" value="DEX 3" style="shape=cube;whiteSpace=wrap;html=1;boundedLbl=1;backgroundOutline=1;darkOpacity=0.05;darkOpacity2=0.1;" vertex="1" parent="mO-mU0wgJN1b0pkcPdMh-128">
          <mxGeometry x="37.5" y="320" width="120" height="80" as="geometry" />
        </mxCell>
        <mxCell id="mO-mU0wgJN1b0pkcPdMh-53" value="Team" style="swimlane;html=1;startSize=20;horizontal=0;" vertex="1" parent="1">
          <mxGeometry x="90" y="790" width="1260" height="200" as="geometry" />
        </mxCell>
        <mxCell id="mO-mU0wgJN1b0pkcPdMh-55" value="Treasury &lt;br&gt;Wallet" style="rounded=1;whiteSpace=wrap;html=1;" vertex="1" parent="mO-mU0wgJN1b0pkcPdMh-53">
          <mxGeometry x="30" y="60" width="100" height="60" as="geometry" />
        </mxCell>
        <mxCell id="mO-mU0wgJN1b0pkcPdMh-97" value="Manage &lt;br&gt;Wallet" style="rounded=1;whiteSpace=wrap;html=1;" vertex="1" parent="mO-mU0wgJN1b0pkcPdMh-53">
          <mxGeometry x="160" y="60" width="100" height="60" as="geometry" />
        </mxCell>
        <mxCell id="mO-mU0wgJN1b0pkcPdMh-74" style="edgeStyle=orthogonalEdgeStyle;rounded=0;orthogonalLoop=1;jettySize=auto;html=1;exitX=0.5;exitY=1;exitDx=0;exitDy=0;entryX=0.5;entryY=0;entryDx=0;entryDy=0;fillColor=#fa6800;strokeColor=#C73500;" edge="1" parent="1" source="dNxyNK7c78bLwvsdeMH5-36" target="mO-mU0wgJN1b0pkcPdMh-55">
          <mxGeometry relative="1" as="geometry" />
        </mxCell>
        <mxCell id="mO-mU0wgJN1b0pkcPdMh-75" value="Rest Profit&amp;nbsp;" style="edgeLabel;html=1;align=center;verticalAlign=middle;resizable=0;points=[];" vertex="1" connectable="0" parent="mO-mU0wgJN1b0pkcPdMh-74">
          <mxGeometry x="-0.6984" y="-2" relative="1" as="geometry">
            <mxPoint as="offset" />
          </mxGeometry>
        </mxCell>
        <mxCell id="mO-mU0wgJN1b0pkcPdMh-76" style="edgeStyle=orthogonalEdgeStyle;rounded=0;orthogonalLoop=1;jettySize=auto;html=1;exitX=0.5;exitY=1;exitDx=0;exitDy=0;entryX=0.5;entryY=1;entryDx=0;entryDy=0;fillColor=#fa6800;strokeColor=#C73500;" edge="1" parent="1" source="mO-mU0wgJN1b0pkcPdMh-30" target="mO-mU0wgJN1b0pkcPdMh-55">
          <mxGeometry relative="1" as="geometry">
            <Array as="points">
              <mxPoint x="690" y="960" />
              <mxPoint x="170" y="960" />
            </Array>
          </mxGeometry>
        </mxCell>
        <mxCell id="mO-mU0wgJN1b0pkcPdMh-77" value="Usage Fee" style="edgeLabel;html=1;align=center;verticalAlign=middle;resizable=0;points=[];" vertex="1" connectable="0" parent="mO-mU0wgJN1b0pkcPdMh-76">
          <mxGeometry x="-0.4691" relative="1" as="geometry">
            <mxPoint x="-220" y="227" as="offset" />
          </mxGeometry>
        </mxCell>
        <mxCell id="mO-mU0wgJN1b0pkcPdMh-98" style="edgeStyle=orthogonalEdgeStyle;rounded=0;orthogonalLoop=1;jettySize=auto;html=1;exitX=0.5;exitY=0;exitDx=0;exitDy=0;entryX=0.5;entryY=1;entryDx=0;entryDy=0;fillColor=#ffe6cc;strokeColor=#d79b00;" edge="1" parent="1" source="mO-mU0wgJN1b0pkcPdMh-97" target="mO-mU0wgJN1b0pkcPdMh-93">
          <mxGeometry relative="1" as="geometry" />
        </mxCell>
        <mxCell id="mO-mU0wgJN1b0pkcPdMh-99" style="edgeStyle=orthogonalEdgeStyle;rounded=0;orthogonalLoop=1;jettySize=auto;html=1;exitX=0.75;exitY=0;exitDx=0;exitDy=0;entryX=0.5;entryY=1;entryDx=0;entryDy=0;fillColor=#ffe6cc;strokeColor=#d79b00;" edge="1" parent="1" source="mO-mU0wgJN1b0pkcPdMh-97" target="mO-mU0wgJN1b0pkcPdMh-94">
          <mxGeometry relative="1" as="geometry" />
        </mxCell>
        <mxCell id="mO-mU0wgJN1b0pkcPdMh-101" style="edgeStyle=orthogonalEdgeStyle;rounded=0;orthogonalLoop=1;jettySize=auto;html=1;exitX=1;exitY=0.5;exitDx=0;exitDy=0;entryX=0.5;entryY=1;entryDx=0;entryDy=0;fillColor=#ffe6cc;strokeColor=#d79b00;" edge="1" parent="1" source="mO-mU0wgJN1b0pkcPdMh-97" target="mO-mU0wgJN1b0pkcPdMh-96">
          <mxGeometry relative="1" as="geometry" />
        </mxCell>
        <mxCell id="mO-mU0wgJN1b0pkcPdMh-100" style="edgeStyle=orthogonalEdgeStyle;rounded=0;orthogonalLoop=1;jettySize=auto;html=1;exitX=1;exitY=0.25;exitDx=0;exitDy=0;entryX=0.5;entryY=1;entryDx=0;entryDy=0;fillColor=#ffe6cc;strokeColor=#d79b00;" edge="1" parent="1" source="mO-mU0wgJN1b0pkcPdMh-97" target="mO-mU0wgJN1b0pkcPdMh-95">
          <mxGeometry relative="1" as="geometry">
            <Array as="points">
              <mxPoint x="390" y="865" />
              <mxPoint x="390" y="685" />
              <mxPoint x="484" y="685" />
            </Array>
          </mxGeometry>
        </mxCell>
        <mxCell id="mO-mU0wgJN1b0pkcPdMh-130" style="edgeStyle=orthogonalEdgeStyle;rounded=0;orthogonalLoop=1;jettySize=auto;html=1;exitX=1;exitY=0.75;exitDx=0;exitDy=0;entryX=0.5;entryY=1;entryDx=0;entryDy=0;fillColor=#ffe6cc;strokeColor=#d79b00;" edge="1" parent="1" source="mO-mU0wgJN1b0pkcPdMh-97" target="mO-mU0wgJN1b0pkcPdMh-129">
          <mxGeometry relative="1" as="geometry" />
        </mxCell>
      </root>
    </mxGraphModel>
  </diagram>
</mxfile>
